<svg aria-hidden="true" style="position: absolute; width: 0; height: 0; overflow: hidden;" version="1.1" xmlns="http://www.w3.org/2000/svg" xmlns:xlink="http://www.w3.org/1999/xlink">
<defs>
<symbol id="icon-down-left" viewBox="0 0 208 32">
<path d="M26.859 24.896l-10.027-6.816 190.64-0.005v-5.333h-189.44l9.44-5.424-2.656-4.624-21.723 12.485 20.773 14.128 2.997-4.411z"></path>
</symbol>
<symbol id="icon-down-right" viewBox="0 0 208 32">
<path d="M180.613 5.92l10.027 6.816h-190.64v5.333h189.44l-9.44 5.424 2.656 4.624 21.733-12.48-20.773-14.133-3.003 4.416z"></path>
</symbol>
<symbol id="icon-down-arrow-left" viewBox="0 0 32 32">
<path d="M7.703 17.068l-1.203-0.818 22.877-0.001v-0.64h-22.733l1.133-0.651-0.319-0.555-2.607 1.498 2.493 1.695 0.36-0.529z"></path>
</symbol>
<symbol id="icon-down-arrow-right" viewBox="0 0 32 32">
<path d="M21.674 14.79l1.203 0.818h-22.877v0.64h22.733l-1.133 0.651 0.319 0.555 2.608-1.498-2.493-1.696-0.36 0.53z"></path>
</symbol>
</defs>
</svg>
